<svg width="1131" height="186" viewBox="0 0 299.244 49.212" xml:space="preserve" xmlns="http://www.w3.org/2000/svg"><g style="display:inline"><g style="fill:#000"><path style="opacity:1;fill:#fff;fill-opacity:1;stroke-width:.555346" d="M135.001 5.044v5.553h2.777V37.81H135v5.553H166.1V37.81h2.777V26.702H166.1v-4.997h2.777V10.597H166.1V5.044h-31.099zm45.538 0v5.553h-5.553v5.554h-2.777v16.105h2.777v5.554h5.553v5.553h19.993V37.81h5.553v-5.554h2.777V16.15h-2.777v-5.554h-5.553V5.044h-19.993zm39.707 0v5.553h-5.553v5.554h-2.777v16.105h2.777v5.554h5.553v5.553h19.993V37.81h5.553v-5.554h2.777V16.15h-2.777v-5.554h-5.553V5.044h-19.993zm31.377 0v11.107h2.777v-5.554h8.886V37.81h-2.777v5.553h13.883V37.81h-2.776V10.597h8.33v5.554h2.777V5.044h-31.1zm-105.515 5.553h14.439v11.108h-14.44V10.597zm37.208 0h14.439v5.554h2.777v16.105h-2.777v5.554h-14.44v-5.554h-2.776V16.15h2.777v-5.554zm39.707 0h14.439v5.554h2.777v16.105h-2.777v5.554h-14.439v-5.554h-2.777V16.15h2.777v-5.554zM21.155 16.151v5.554h11.663v5.553H21.155v4.998H18.38v5.554h2.776v5.553H43.924V37.81h-2.776V21.705H38.37V16.15H21.155zm25.546 0v5.554h2.777V37.81h-2.777v5.553H58.363V21.705h5.554V37.81H61.14v5.553h14.44V37.81h-3.333V21.705H69.47V16.15H46.701zm34.432 0v5.554h-2.777V37.81h2.777v5.553h16.66V37.81h2.777V21.705h-2.777V16.15h-16.66zm22.491 0v5.554h2.777V37.81h-2.777v5.553H115.286V21.705h5.554V37.81h-2.777v5.553h14.439V37.81h-3.332V21.705h-2.777V16.15h-22.769zm-16.938 5.554h5.553V37.81h-5.553V21.705zm59.422 4.997h14.439V37.81h-14.44V26.702zM26.709 32.256h6.109v5.554h-6.109v-5.554z"/></g></g></svg>