<?xml version="1.0" encoding="UTF-8" standalone="no"?>
<!-- Generator: Adobe Illustrator 24.0.0, SVG Export Plug-In . SVG Version: 6.00 Build 0)  -->

<svg
   version="1.1"
   id="Layer_1"
   x="0px"
   y="0px"
   viewBox="0 0 397.7 311.7"
   style="enable-background:new 0 0 397.7 311.7;"
   xml:space="preserve"
   xmlns="http://www.w3.org/2000/svg"
   xmlns:svg="http://www.w3.org/2000/svg"><defs
   id="defs6" />
<style
   type="text/css"
   id="style1">
	.st0{fill:url(#SVGID_1_);}
	.st1{fill:url(#SVGID_2_);}
	.st2{fill:url(#SVGID_3_);}
</style>
<linearGradient
   id="SVGID_1_"
   gradientUnits="userSpaceOnUse"
   x1="360.8791"
   y1="351.4553"
   x2="141.213"
   y2="-69.2936"
   gradientTransform="matrix(1.0036836,0,0,-1.0036836,27.197016,274.9598)">
	<stop
   offset="0"
   style="stop-color:#00FFA3"
   id="stop1" />
	<stop
   offset="1"
   style="stop-color:#DC1FFF"
   id="stop2" />
</linearGradient>
<path
   class="st0"
   d="m 92.034972,198.57947 c 2.408841,-2.40884 5.720997,-3.814 9.233888,-3.814 h 318.56916 c 5.82137,0 8.73205,7.02578 4.61695,11.14089 l -62.93096,62.93096 c -2.40884,2.40884 -5.721,3.81399 -9.23389,3.81399 H 33.720958 c -5.821364,0 -8.732047,-7.02578 -4.616944,-11.14088 z"
   id="path2"
   style="fill:url(#SVGID_1_);stroke-width:1.00368" />
<linearGradient
   id="SVGID_2_"
   gradientUnits="userSpaceOnUse"
   x1="264.8291"
   y1="401.6014"
   x2="45.163"
   y2="-19.1475"
   gradientTransform="matrix(0.90049325,0,0,-0.90049325,42.506051,282.75488)">
	<stop
   offset="0"
   style="stop-color:#00FFA3"
   id="stop3" />
	<stop
   offset="1"
   style="stop-color:#DC1FFF"
   id="stop4" />
</linearGradient>
<path
   class="st1"
   d="M 100.67791,3.4218743 C 102.92914,1.2606906 105.90077,0 108.96245,0 h 285.81656 c 5.22286,0 7.83429,6.3034526 4.14227,9.9954753 L 342.46035,66.456401 c -2.16118,2.161183 -5.13281,3.421874 -8.28453,3.421874 H 48.359257 c -5.222862,0 -7.834291,-6.303452 -4.142269,-9.995475 z"
   id="path4"
   style="fill:url(#SVGID_2_);stroke-width:0.900493" />
<linearGradient
   id="SVGID_3_"
   gradientUnits="userSpaceOnUse"
   x1="312.5484"
   y1="376.688"
   x2="92.8822"
   y2="-44.061"
   gradientTransform="matrix(1.017842,0,0,-1.017842,13.206417,293.59193)">
	<stop
   offset="0"
   style="stop-color:#00FFA3"
   id="stop5" />
	<stop
   offset="1"
   style="stop-color:#DC1FFF"
   id="stop6" />
</linearGradient>
<path
   class="st2"
   d="m 352.24959,96.232379 c -2.44283,-2.44282 -5.8017,-3.867799 -9.36415,-3.867799 H 19.82239 c -5.903483,0 -8.855225,7.124894 -4.682073,11.29804 l 63.818693,63.8187 c 2.442821,2.44283 5.801699,3.8678 9.364146,3.8678 H 411.38621 c 5.90348,0 8.85522,-7.12489 4.68207,-11.29805 z"
   id="path6"
   style="fill:url(#SVGID_3_);stroke-width:1.01784" />
<g
   style="fill:#000000"
   id="g6"
   transform="matrix(19.350131,0,0,19.350131,-86.269804,-172.68754)"><path
     d="M 16,0 C 24.837,0 32,7.163 32,16 32,24.837 24.837,32 16,32 7.163,32 0,24.837 0,16 0,7.163 7.163,0 16,0 Z m 8.706,19.517 H 10.34 a 0.59,0.59 0 0 0 -0.415,0.17 L 7.087,22.502 A 0.291,0.291 0 0 0 7.294,23 H 21.66 a 0.59,0.59 0 0 0 0.415,-0.17 l 2.838,-2.816 A 0.291,0.291 0 0 0 24.706,19.517 Z M 21.66,14.225 H 7.294 l -0.068,0.007 a 0.291,0.291 0 0 0 -0.14,0.49 l 2.84,2.816 0.07,0.06 c 0.1,0.07 0.22,0.11 0.344,0.11 h 14.366 l 0.068,-0.007 a 0.291,0.291 0 0 0 0.14,-0.49 l -2.84,-2.816 -0.07,-0.06 A 0.59,0.59 0 0 0 21.66,14.225 Z M 24.706,9 H 10.34 A 0.59,0.59 0 0 0 9.925,9.17 l -2.838,2.816 a 0.291,0.291 0 0 0 0.207,0.497 H 21.66 a 0.59,0.59 0 0 0 0.415,-0.17 L 24.913,9.498 A 0.291,0.291 0 0 0 24.706,9 Z"
     id="path1" /></g></svg>
